<svg id="Layer_1" data-name="Layer 1" xmlns="http://www.w3.org/2000/svg" viewBox="0 0 58.24 48.03"><defs><style>.cls-1{fill:#010101;}</style></defs><path class="cls-1" d="M189.53,237.11a1.69,1.69,0,0,1-.08-.53c-.15-.21-.13-.36.08-.46s.3-.38,0-.53a.66.66,0,0,1-.26-.15c-.13-.1-.12-.23,0-.38v-.15a10.62,10.62,0,0,1,.22-2.21,1.25,1.25,0,0,0,0-.72c-.08-.13-.32-.24-.73-.34l.61-.08c.31-.1.41-.25.3-.46a2.21,2.21,0,0,0-.07-.38.52.52,0,0,0-.46-.38,2.46,2.46,0,0,1,1.37-.68l5.16,0,1.45.08c1.06,0,2.66.06,4.79.06,1,.05,2.38.07,4.25.06h.92q1.59-.08,4.86-.09,5,0,7.52.06l4.94.06,1.75-.08,5.63-.09,7.52.05,5.47-.09h.91c.36,0,.48.15.38.46a4.17,4.17,0,0,0-.15.83c-.05.05-.05.16,0,.31a9.15,9.15,0,0,1,.15,1.29c0,.15.1.28.31.38a.54.54,0,0,1,.3.53,4,4,0,0,0,.16,1,1.24,1.24,0,0,1-.08,1,1.06,1.06,0,0,0-.07.45.9.9,0,0,1-1,1.14l-4.33,0c-1,0-2.41.08-4.33.08H232.7l-9.43,0h-5l-12.69,0-11.25,0-2.43-.07C191.33,237.13,190.54,237.11,189.53,237.11Zm1.35-5.71,6.76-.24a13.89,13.89,0,0,0-4.63.09A20.79,20.79,0,0,1,190.88,231.4Zm9.81,0h5.09v-.08h-3.42l-2.74-.06-2.13-.08c-1.06,0-2.61.06-4.63.17l-2.28.08a.81.81,0,0,0-.53.31v.07l.3-.07-.07.45a1.74,1.74,0,0,1,.45-.3.41.41,0,0,1,.3-.16c.46-.05,1.06-.1,1.79-.15s1.61-.08,2.62-.09C196.61,231.49,198.35,231.46,200.69,231.45Zm-9.43.94,10.34-.33-4.79-.06A33.57,33.57,0,0,0,191.26,232.39Zm6,.52,6.08,0v-.08l-6.08,0Zm-2.89.38h3.88v-.07h-3.88Zm-4,.47H190v.15a1.18,1.18,0,0,0,.38.16l1.14-.08a12,12,0,0,1,1.74-.08l2.06-.09c2-.1,3.52-.16,4.48-.16,1.32,0,3.29,0,5.93.06l6.84.06h1.37v-.07c-1.12-.1-2-.15-2.51-.15l-6.39-.06-5,0-2.89-.07c-.91,0-2.28.06-4.1.16a6.94,6.94,0,0,1-1.22.08,1.3,1.3,0,0,0-.53.08A.76.76,0,0,1,190.36,233.76Zm36,.13h1.82l2.82-.08h1.55a5.51,5.51,0,0,1,1.71.22c2.39,0,4.16,0,5.33.07h1.74v.08h-1.06a7.83,7.83,0,0,0,1.52.15,3.55,3.55,0,0,0,1.75-.23l-.69-.08c0-.1-.28-.15-.83-.15H237.7l.84-.15h.84c-2.84-.1-5-.14-6.46-.14C230.53,233.58,228.36,233.69,226.38,233.89Zm-3.8-.29-8.06,0v.15c.61,0,1.5.08,2.66.07l5.4-.09Zm19.68.1H243s0-.08-.07-.08h-.69Zm-16.87,0h-2.2v.08l2.2.15Zm-24.85.83h-.91v.15c1.22-.11,2.13-.16,2.74-.16l3.42-.09,3.42.07,7.67,0q4.34,0,6.54-.09l3.49.06c1,0,2.54,0,4.56-.16,1.27,0,2.23,0,2.89-.08v-.08h-1.75l.23-.15v-.07l-3.42.08V234H231l-.16.08c-1.92.11-3.34.16-4.25.16l-.34,0a.39.39,0,0,1-.42-.26h-.15a14.48,14.48,0,0,0-1.83-.07c0,.05,0,.12.16.22l-10.34,0v-.15l8.28,0V234l-.53-.07c-.3,0-.68,0-1.14,0a14.16,14.16,0,0,1-1.67,0l-8.36,0c-2.54,0-6.31-.06-11.33-.05-1.11,0-2.73.06-4.86.17l-.61.08a2.52,2.52,0,0,1-.76.15,6.14,6.14,0,0,0-1.9.23l-.07.08q.15.3.3.3a1.23,1.23,0,0,0,.38-.07,1.13,1.13,0,0,1,.53-.16l.08.16a1.23,1.23,0,0,0-.53.15V235c.56,0,1.34-.05,2.35-.15l.23-.08a1.23,1.23,0,0,1,.53-.15h3.58c.55,0,1.34-.06,2.35-.16Zm6.84-.4h0Zm-14.51.57v-.08a.64.64,0,0,0,.26-.08c.13,0,.24,0,.34.16Zm8.74.2h-3.88V235h3.88Zm-4.56,0h-2.51V235h2.51Zm-1,.39h-2.2v.08h2.28C196.14,235.29,196.11,235.27,196.06,235.27Zm24.7.84v.08c1.52.1,2.66.14,3.42.14l5.32-.09,3.42-.08h3.57q2.06-.09,6.24-.1a2.45,2.45,0,0,0,.6-.15v-.08l-.38-.07c-.55.05-1.36.08-2.43.08l-7.45,0-.53-.07a.07.07,0,0,1,.08-.08c1.62-.11,2.81-.16,3.57-.16q2.13-.09,6.46-.09a1,1,0,0,0,.45-.08v-.08h-3.19c-.86,0-2.2.08-4,.09h-4.1q-4.56.16-6.84.17h-7.6l-6-.06a17.53,17.53,0,0,0-2,0c-.58,0-1.07,0-1.48,0h-1.67l-6.23.1-7.3.24-.3.08s.07,0,.07.08l-.3.45,14.74-.34V236L200,236H193.1a2.38,2.38,0,0,1,.34,0,1.09,1.09,0,0,0,.49,0A20.32,20.32,0,0,0,196,236l2.12-.08a18.32,18.32,0,0,1,2.06,0l1.52,0h1.82c1.11,0,2.76-.08,4.94-.08l5.32.06,7.75,0c1-.06,1.9-.07,2.66-.05s1.37,0,1.83,0l4-.08h1.9v.15C227,236.07,223.24,236.16,220.76,236.11ZM207.92,236v.16a4.1,4.1,0,0,0,.91.07,2.94,2.94,0,0,0,1.06-.15A19,19,0,0,1,207.92,236Zm-16.42.2-.76.15C191,236.7,191.25,236.65,191.5,236.19Z" transform="translate(-188.75 -229.64)"/><path class="cls-1" d="M189.58,257.32a1.7,1.7,0,0,1-.07-.53c-.16-.2-.13-.35.07-.45s.3-.38,0-.54a.61.61,0,0,1-.27-.15c-.12-.1-.11-.23,0-.38v-.15a11.32,11.32,0,0,1,.22-2.2,1.22,1.22,0,0,0,0-.73,1.3,1.3,0,0,0-.72-.34l.61-.07c.3-.11.4-.26.3-.46a2.54,2.54,0,0,0-.08-.38.52.52,0,0,0-.45-.38,2.4,2.4,0,0,1,1.36-.69h5.17l1.44.07c1.07,0,2.66.07,4.79.06,1,0,2.38.07,4.26.07h.91q1.59-.09,4.86-.09,5,0,7.53.05l4.94.07,1.75-.08,5.62-.1,7.52.06,5.48-.09h.91c.35,0,.48.15.38.45a4.35,4.35,0,0,0-.15.84q-.08.08,0,.3a9.3,9.3,0,0,1,.15,1.29.46.46,0,0,0,.31.38.57.57,0,0,1,.31.54,4.25,4.25,0,0,0,.15,1,1.24,1.24,0,0,1-.07,1,1.05,1.05,0,0,0-.08.46,1,1,0,0,1-.19.83,1,1,0,0,1-.79.31h-4.33c-1,.05-2.41.08-4.34.09h-4.33l-9.42,0h-5l-12.69,0-11.25,0-2.43-.07C191.38,257.34,190.6,257.32,189.58,257.32Zm1.36-5.7,6.76-.25a15.79,15.79,0,0,0-1.83-.14,17.28,17.28,0,0,0-2.81.23A18.71,18.71,0,0,1,190.94,251.62Zm9.8,0h5.09v-.08h-3.42l-2.73-.07-2.13-.07c-1.07,0-2.61.06-4.64.17l-2.28.08a.83.83,0,0,0-.53.3v.08l.3-.08-.07.46a1.74,1.74,0,0,1,.45-.31.47.47,0,0,1,.31-.15c.45-.05,1-.11,1.78-.16s1.61-.08,2.63-.08S198.41,251.68,200.74,251.67Zm-9.42.94,10.33-.33-4.78-.07A34.57,34.57,0,0,0,191.32,252.61Zm6,.51h6.08V253l-6.08,0Zm-2.88.39h3.87v-.08l-3.87,0Zm-4,.47H190v.15a1.32,1.32,0,0,0,.38.15l1.14-.08a13.88,13.88,0,0,1,1.75-.08l2-.08c2-.11,3.52-.16,4.48-.16q2-.09,5.93.06l6.84.05H214v-.08c-1.12-.09-1.95-.14-2.51-.14l-6.38-.06h-5l-2.89-.06c-.91,0-2.28.05-4.1.16a6.86,6.86,0,0,1-1.22.08,1.34,1.34,0,0,0-.53.07A.75.75,0,0,1,190.41,254Zm36,.13h1.83l2.81-.08h1.56a5.59,5.59,0,0,1,1.71.22c2.38,0,4.15,0,5.32.06h1.75v.07h-1.07a7.17,7.17,0,0,0,1.52.14,3.52,3.52,0,0,0,1.75-.23l-.68-.07q0-.15-.84-.15h-4.33l.83-.16h.84c-2.84-.09-5-.14-6.46-.13A62.25,62.25,0,0,0,226.43,254.11Zm-3.8-.29-8,0V254c.61,0,1.49.07,2.66.07l5.39-.09Zm19.69.09h.76s0-.07-.08-.07h-.68Zm-16.87,0h-2.21V254l2.21.14Zm-24.85.83h-.92v.15c1.22-.1,2.13-.15,2.74-.15l3.42-.09,3.42.07,7.68,0q4.32,0,6.53-.1l3.5.07c1,0,2.53-.06,4.56-.16,1.26,0,2.23,0,2.89-.09v-.07h-1.74l.22-.15v-.08l-3.42.09v.07h1.6l-.15.08c-1.93.1-3.34.16-4.26.16l-.34,0a.41.41,0,0,1-.42-.27h-.15a16.48,16.48,0,0,0-1.82-.07c0,.05,0,.13.15.23l-10.34,0v-.16l8.29,0v-.07l-.54-.08c-.3,0-.68,0-1.14,0a12.11,12.11,0,0,1-1.67,0l-8.36,0C207.79,254,204,254,199,254c-1.12,0-2.74.06-4.87.17l-.6.07a2.35,2.35,0,0,1-.76.16,6.11,6.11,0,0,0-1.9.23l-.08.08c.1.2.21.3.31.3a1.36,1.36,0,0,0,.38-.08,1.23,1.23,0,0,1,.53-.15l.07.15a1.23,1.23,0,0,0-.53.15v.08a23.22,23.22,0,0,0,2.36-.16l.23-.07a1.13,1.13,0,0,1,.53-.16h3.57a23.22,23.22,0,0,0,2.36-.16Zm6.83-.4h0Zm-14.51.57v-.07a1,1,0,0,0,.27-.08c.12,0,.24,0,.34.15Zm8.74.21h-3.87v.07h3.87Zm-4.56,0h-2.51v.07h2.51Zm-1,.38h-2.2v.07h2.28A.07.07,0,0,0,196.11,255.48Zm24.71.85v.07q2.28.15,3.42.15l5.32-.09,3.42-.09h3.57c1.37-.05,3.44-.08,6.23-.09a2.6,2.6,0,0,0,.61-.15V256L243,256c-.56.06-1.37.08-2.43.09l-7.45,0-.53-.08c0-.05,0-.07.07-.07,1.62-.11,2.81-.16,3.57-.16q2.13-.09,6.46-.1a1.08,1.08,0,0,0,.46-.08v-.07H240c-.87,0-2.21.08-4,.08h-4.11c-3,.11-5.31.17-6.84.18h-2.58l-5,0-6-.06a17.57,17.57,0,0,0-2,0c-.59,0-1.08,0-1.49,0h-1.67l-6.23.09-7.29.25-.31.08c.05,0,.08,0,.08.07l-.3.46,14.74-.34v-.16l-6.84,0-6.92,0a1.42,1.42,0,0,1,.34,0,1.3,1.3,0,0,0,.5,0,20.24,20.24,0,0,0,2-.08l2.13-.09c.76-.05,1.44-.06,2.05,0s1.11,0,1.52,0h1.82c1.12-.05,2.76-.08,4.94-.09l5.32.06,7.76,0c1,0,1.9-.07,2.66,0l1.82,0,4-.09H232v.15C227,256.29,223.3,256.37,220.82,256.33ZM208,256.21v.15a4,4,0,0,0,.91.08,3.26,3.26,0,0,0,1.07-.16C209.09,256.28,208.43,256.26,208,256.21Zm-16.41.2-.76.15C191.05,256.91,191.3,256.86,191.56,256.41Z" transform="translate(-188.75 -229.64)"/><path class="cls-1" d="M189.64,277.54a1.69,1.69,0,0,1-.08-.53c-.15-.2-.13-.36.07-.46s.31-.38,0-.53a.55.55,0,0,1-.26-.15c-.13-.1-.12-.23,0-.38v-.15a11.45,11.45,0,0,1,.23-2.21,1.28,1.28,0,0,0,0-.72c-.08-.13-.32-.24-.73-.34l.61-.08c.3-.1.41-.25.3-.46a2,2,0,0,0-.07-.37.52.52,0,0,0-.46-.38,2.43,2.43,0,0,1,1.36-.69h5.17l1.45.07c1.06,0,2.66.07,4.79.06,1,.05,2.38.07,4.25.06h.91c1.07,0,2.69-.08,4.87-.09q5,0,7.52.06l4.94.06,1.75-.08,5.62-.09,7.53.06,5.47-.09h.91c.35,0,.48.15.38.46a4.17,4.17,0,0,0-.15.83c0,.06,0,.16,0,.31a8.3,8.3,0,0,1,.16,1.29c0,.15.1.28.3.38a.54.54,0,0,1,.31.53,4.4,4.4,0,0,0,.15,1,1.21,1.21,0,0,1-.07,1,1.06,1.06,0,0,0-.07.45,1,1,0,0,1-.19.84,1.07,1.07,0,0,1-.8.31h-4.33c-1,0-2.41.08-4.33.08l-4.33,0-9.43,0h-5l-12.7,0-11.24,0-2.44-.07C191.44,277.56,190.65,277.54,189.64,277.54Zm1.35-5.7,6.76-.25a16.37,16.37,0,0,0-1.82-.15,17.28,17.28,0,0,0-2.81.24C192.21,271.78,191.5,271.83,191,271.84Zm9.8.05,5.1,0v-.07h-3.42l-2.74-.07-2.13-.07c-1.06,0-2.61.05-4.63.16l-2.28.08a.83.83,0,0,0-.54.31v.07l.31-.07-.08.45a2,2,0,0,1,.46-.3.43.43,0,0,1,.3-.15c.46-.06,1.05-.11,1.79-.16s1.61-.08,2.62-.08S198.46,271.89,200.79,271.89Zm-9.42.93,10.34-.33-4.79-.06A33.57,33.57,0,0,0,191.37,272.82Zm6,.52,6.08,0v-.07h-6.08Zm-2.89.39h3.88v-.08h-3.88Zm-4,.46h-.38v.16a1.59,1.59,0,0,0,.38.15l1.14-.08a14,14,0,0,1,1.75-.08l2.05-.08c2-.11,3.52-.17,4.49-.17q2-.07,5.93.06l6.84.06H214v-.08c-1.11-.1-2-.15-2.5-.14l-6.39-.06h-5l-2.89-.07c-.91,0-2.28.06-4.11.16a6,6,0,0,1-1.21.08,1.26,1.26,0,0,0-.53.08A.78.78,0,0,1,190.46,274.19Zm36,.14h1.82l2.81-.08h1.56a5.48,5.48,0,0,1,1.71.23c2.38,0,4.16,0,5.32.06h1.75v.08H240.4a7.76,7.76,0,0,0,1.52.15,3.57,3.57,0,0,0,1.75-.23l-.69-.08q0-.15-.84-.15h-4.33l.84-.16h.83c-2.83-.1-5-.14-6.46-.14A64.55,64.55,0,0,0,226.49,274.33Zm-3.8-.3-8.06,0v.15c.61.05,1.5.08,2.66.07l5.4-.09Zm19.68.1h.76c0-.05,0-.08-.07-.08h-.69Zm-16.87,0h-2.2v.07l2.2.15Zm-24.85.83h-.91v.15c1.21-.1,2.13-.16,2.73-.16l3.42-.08,3.42.06,7.68,0c2.89,0,5.07,0,6.54-.09l3.49.07c1,0,2.53-.06,4.56-.17,1.27,0,2.23,0,2.89-.08v-.08h-1.75l.23-.16v-.07l-3.42.08v.08h1.6l-.16.08c-1.92.11-3.34.16-4.25.16l-.34,0a.39.39,0,0,1-.42-.26h-.16a16.36,16.36,0,0,0-1.82-.07s.05.12.15.23l-10.33,0v-.15l8.28,0v-.08l-.53-.07c-.31,0-.69,0-1.14,0a13.88,13.88,0,0,1-1.67,0l-8.36-.06c-2.54,0-6.31-.06-11.33,0-1.11,0-2.73.05-4.86.16l-.61.08a2.52,2.52,0,0,1-.76.15,5.89,5.89,0,0,0-1.9.24l-.07.07c.1.2.2.31.3.31a1.29,1.29,0,0,0,.38-.08,1.42,1.42,0,0,1,.53-.16l.08.16a1.23,1.23,0,0,0-.53.15v.08c.55,0,1.34-.06,2.35-.16l.23-.08a1.23,1.23,0,0,1,.53-.15h3.57c.56,0,1.35-.06,2.36-.16Zm6.84-.4h0ZM193,275.1V275a.87.87,0,0,0,.27-.07c.13-.06.24,0,.34.15Zm8.75.2h-3.88v.08h3.88Zm-4.56,0h-2.51v.08h2.51Zm-1,.38H194v.08h2.28S196.22,275.7,196.17,275.7Zm24.7.84v.08c1.52.1,2.66.14,3.42.14l5.32-.09,3.42-.08h3.57q2.06-.09,6.23-.09a2.57,2.57,0,0,0,.61-.16v-.07l-.38-.08c-.56.05-1.37.08-2.43.08l-7.45,0-.53-.07s0-.08.08-.08c1.62-.1,2.81-.16,3.57-.16,1.41-.05,3.57-.08,6.46-.09a1,1,0,0,0,.45-.08v-.08H240c-.86,0-2.2.08-4,.09h-4.1q-4.56.17-6.84.17h-7.6l-6-.06a17.36,17.36,0,0,0-2,0c-.58,0-1.08,0-1.48,0h-1.67l-6.23.09-7.3.24-.3.08c.05,0,.07,0,.07.08l-.3.45,14.74-.34v-.15l-6.84,0-6.91,0,.34,0a1.1,1.1,0,0,0,.49,0,20.1,20.1,0,0,0,2.05-.08l2.13-.08a18.18,18.18,0,0,1,2.05,0l1.52,0h1.83c1.11-.06,2.76-.09,4.94-.09l5.32.06,7.75,0c1-.06,1.9-.07,2.66-.05s1.37,0,1.82,0l4-.09H232v.16C227.08,276.5,223.35,276.59,220.87,276.54ZM208,276.43v.15a4.1,4.1,0,0,0,.91.07,3,3,0,0,0,1.06-.15A19.6,19.6,0,0,1,208,276.43Zm-16.42.19-.76.16C191.11,277.13,191.36,277.08,191.61,276.62Z" transform="translate(-188.75 -229.64)"/></svg>