<svg enable-background="new 0 0 155.8 199.2" viewBox="0 0 155.8 199.2" xmlns="http://www.w3.org/2000/svg"><path d="m139.1 17.7 6.5-3.3 1.6 2.2c.4-.4.7-.7 1.1-1.1l-.5 3.8c-.4.4-1.1.5-2.2.5l.5 1.6c1.1 0 2-.2 2.7-.5.7.4.9 1 .5 1.9s-.5 1.7-.5 2.4c.7 0 1.1.2 1.1.5l1.1 2.3c-.4.7-.4 2 0 3.8s0 3.1-1.1 3.8c-1.1 1.1-1.6 1.8-1.6 2.2s.7.9 2.2 1.6l.5 1.1-2.7 1.6 2.7 2.7c-1.1 1.1-1.6 2.9-1.6 5.4v3.8l-1.1 6.5c1.1 1.4 1.5 3.1 1.4 4.9-.2 1.8-1 3.2-2.4 4.3-1.1 1.1-3.2 2.8-6.2 5.1-3.1 2.4-6.1 4.2-8.9 5.7-4.3 2.2-10.8 5.8-19.5 10.8l-8.7 4.9c-5.1 1.8-9.8 3.6-14.1 5.4-1.1.7-2.5 1.4-4.3 1.9s-3.8 1.5-6 3c4 1.8 7.7 3.4 11.1 4.9 3.4 1.4 6.6 2.9 9.5 4.3l14.6 6.5 35.2 15.7c-.7 2.2-1.1 3.8-1.1 4.9 0 1.4.4 3.2 1.1 5.4-1.1 0-1.4.7-1.1 2.2.4 1.8.5 4.3.5 7.6-.4 0-.5.2-.5.5.4 0 .9.4 1.6 1.1l-2.2.5-2.2 3.8c0 .4-.1 1-.3 1.9s-.1 1.5.3 1.9c.7 1.1 1.1 2.9 1.1 5.4-.4 1.4-.2 3.6.5 6.5l.5 2.2c0 1.1-.8 2.6-2.4 4.6s-3 3.3-4.1 4.1c-2.2.7-3.6 1.1-4.3 1.1-1.4 0-4-.7-7.6-2.2l-6.5-1.6c-1.1-.4-2.4-.9-3.8-1.6s-3.1-1.4-4.9-2.2c-4-1.8-7.7-3.4-11.1-4.9-3.4-1.4-6.6-2.9-9.5-4.3l-14.6-6.5-32.4-16.2c-6.1-2.2-9.8-3.4-10.8-3.8l-23.3-10.3c-4-2.2-6.3-3.4-7-3.8 0-1.1.2-1.6.5-1.6 1.8-.4 2.7-1.6 2.7-3.8v-3.3l-1.6-1.6c-1.5-.7-2.3-1.3-2.5-1.9-.2-.5-.1-1.7.3-3.5.4-.7.5-2 .5-3.8l-.5-1.1c1.1-1.8 1.4-4 .8-6.5-.5-2.5-.8-4.3-.8-5.4-.4-2.2-.5-4-.3-5.4s.3-2.7.3-3.8l1.6-2.2 3.2-3.8v-.5c-.4 0-1.8.9-4.3 2.7v-.5c.4-1.1.8-2.9 1.4-5.4.5-2.5 1.4-4.5 2.4-6 0-.4.4-.9 1.1-1.6 13.7-6.5 24.2-11.2 31.4-14.1l12.5-5.4c4.3-1.1 7.8-2.3 10.3-3.8 6.1-2.2 13.5-5.4 22.2-9.8 6.5-2.9 16.3-7.6 29.3-14.1 3.6-1.4 6.8-2.9 9.5-4.3s5-2.7 6.8-3.8c.6-.7 2.8-1.4 6.4-2.2zm-120.3 59.1-9.2 7c3.6-1 6.7-3.4 9.2-7zm114.4-45.5-.5-1.1-2.7 1.1-29.3 14.1-24.4 11.3c-2.5.7-5.7 1.7-9.5 3s-8.2 3-13.3 5.1l-16.8 7.6-6.5 3.2c-4 1.8-6.3 3.1-7 3.8l-6.5 3.8-1.1 2.2c1.1-.7 2.7-1.4 4.9-2.2l24.9-10.8c1.1-.4 2.8-1.2 5.1-2.4 2.3-1.3 4.6-2.1 6.8-2.4 1.8-.7 3.7-1.4 5.7-1.9s3.9-1.2 5.7-1.9c3.3-1.8 8.1-4.1 14.6-7 1.1-.7 2.3-1.6 3.5-2.7 1.3-1.1 2.4-1.8 3.5-2.2l36.9-17.9c1.8-1.4 3.8-2.4 6-2.7zm-8.2 16.2 3.8-2.7c-1.4-.4-3.1-.5-4.9-.5-2.5 0-4.3.4-5.4 1.1-.7.7-4.9 2.9-12.5 6.5-2.9 1.4-11.2 5.4-24.9 11.9l-10.3 4.9-16.8 6-20.6 8.7c-1.4.4-2.5.8-3.2 1.4-.7.5-1.4 1-2.2 1.4 1.4 1.1 2.8 1.3 4.1.5 1.3-.7 2.3-1.1 3-1.1 2.2-1.1 8.3-4 18.4-8.7 13-4.7 20.4-7.4 22.2-8.1l15.2-6.5c11.5-5.6 22.9-10.4 34.1-14.8zm-71.5 101.9-22.2-9.2-1.1 1.1c1.4.7 3.3 1.4 5.7 1.9 2.3.5 4.2 1.2 5.7 1.9 2.5 1.4 4.8 2.5 6.8 3.2s3.5 1.3 4.6 1.6zm72.1 17.3c-1.1-1.4-2.1-2.5-3-3.3-.9-.7-2.3-1.4-4.1-2.2l-1.1-.5c-2.5-.7-5.7-2-9.5-3.8s-7.1-2.9-10-3.2c-3.3 0-7.8-1.4-13.5-4.3l-10.3-6-10.9-5.4c-4.7-2.5-12.1-6-22.2-10.3v.5c1.4 2.5 14.9 9.7 40.4 21.4 25.5 11.8 40.2 17.5 44.2 17.1zm-1.7 12.5v-1.1c-1.4-1.4-2.7-2.3-3.8-2.7-7.9-2.5-13-4.3-15.2-5.4l-18.4-7.6-16.3-8.1c-7.2-3.6-12.6-6.1-16.3-7.6-2.5-1.4-6.7-3.3-12.5-5.4v1.1l17.3 8.1c.7 0 1.4.2 1.9.5.5.4.8.7.8 1.1-.4.7-.2 1.3.5 1.6.7.4 1.3.5 1.6.5l10.3 4.9c2.5 1.1 5.5 2.5 8.9 4.3s7.3 3.6 11.6 5.4c3.3 1.4 7.5 3.2 12.7 5.1 5.2 2 9.5 3.5 12.7 4.6 1.2.5 2.4.7 4.2.7zm1.7-23.3c0-.4.2-.5.5-.5-.7-.7-1.5-1.4-2.4-2.2-.9-.7-1.9-1.4-3-2.2l-23.3-9.8-22.8-9.8-27.6-12.3c-1.8-.7-3.4-.4-4.9 1.1l37.9 16.2c15.2 6.9 30.4 13.4 45.6 19.5zm-68.9-67.7-9.7 3.8.5 1.1c1.1-.7 2.6-1.4 4.6-1.9s3.5-1.4 4.6-2.4zm17.9-6.5v.5l10.3-4.3-.5 1.1c-7.2 3.6-18.4 8.7-33.6 15.2 1.4 1.4 3.1 1.8 4.9 1.1l22.2-9.8c8.7-4 17.3-8.3 26-13 1.4-.7 3.3-2.2 5.4-4.3 1.1-.4 2.6-1.4 4.6-3.3 2-1.8 3.7-3.1 5.1-3.8l6-2.2-.5-1.1-20.6 9.8c-6.5 2.9-16.3 7.6-29.3 14.1zm-14.1 62.8-7-3.2c-.4 0-.5.2-.5.5l7.6 3.8v-1.1zm1.1-30.3-3.2-.5v.5l1.1 1.1c26.4 10.8 49.3 20.8 68.8 29.8l12.5 5.4c.7 0 1.3-.2 1.6-.5v-.5c-.7-.7-1.3-1.1-1.6-1.1-1.1-.4-2.2-.7-3.2-1.1-1.1-.4-2.2-.7-3.2-1.1-4.3-2.5-9.5-5-15.4-7.3-6-2.3-10.4-4.2-13.3-5.7-9.9-4-24.6-10.3-44.1-19zm9.2-30.9-9.8 3.2.5.5 9.2-3.3v-.4zm46.1-16.3-50.9 25.5c2.2-.4 10.9-4.2 26.3-11.7 15.3-7.4 23.9-11.8 25.7-13.3zm-1.6 10.9-49.3 23.3c.7.4 1.4.7 2.2 1.1.7.4 1.6.5 2.7.5.7 0 1.8-.4 3.2-1.1 11.6-5.8 20.4-9.9 26.6-12.5 3.6-1.8 8.3-4.9 14.1-9.2.4-.4.5-.9.5-1.6zm-39-6-9.3 3.8v1.1l9.8-4.3c-.4 0-.5-.2-.5-.6zm45.5 86.7.5-1.1-54.2-22.8c.7 1.8 8.9 6.1 24.7 13 15.7 6.9 25.4 10.6 29 10.9zm5.4 11.4c0-.4-.2-.5-.5-.5l-41.2-16.3c0 .4-.2.5-.5.5.7.7 1.4 1.1 2.2 1.1l36.3 14.6c.6.4 1.9.6 3.7.6zm9.2-33.1 2.7-.5.5-1.1c-9-3.2-14.8-5.2-17.3-6v.5zm-3.8-66.6-7.6 4.9.5 1.1c2.5-1.8 4.8-3.3 6.8-4.3 2-1.1 3.9-2.2 5.7-3.3.4-.4.5-.9.5-1.6-1.1 0-1.8.2-2.2.5zm8.1 98.1v3.2c.4 0 .5.2.5.5.4-.4.7-.6 1.1-.8s.7-.4 1.1-.8c-.7-1.8-1.6-2.5-2.7-2.1z"/></svg>