<svg enable-background="new 0 0 155.8 199.2" viewBox="0 0 155.8 199.2" xmlns="http://www.w3.org/2000/svg"><path d="m8.2 44.1c0-1.1 0-2.7 0-4.9s-.7-4-2.2-5.4c1.4-.7 2.5-1.4 3.2-2.2-1.4-.7-2.5-1.4-3.2-2.2.7-.4 1.4-.7 1.9-1.1s1-.7 1.4-1.1l-2.7-2.7-.5-1.1c.4-1.4.4-2.7.3-3.8-.2-1.1-.1-2.2.3-3.2 0-.4.5-1.1 1.6-2.2v-3.8h3.2v-.9h-1.6l-1.1-3.3.5-.5c2.2-2.2 4.3-2 6.5.5.4.4 1.2.6 2.5.8s2.4.5 3.5.8l14.1 7 27.1 13c13 6.5 22 10.7 27.1 12.5 15.2 5.8 26.4 10.3 33.6 13.5 10.5 5.4 16.8 8.5 19 9.2l1.1.5c1.8.4 3.2 1.3 4.3 2.7s1.8 2.9 2.2 4.3c.4 1.1.7 2.4 1.1 3.8s.5 2.5.5 3.2c-.4 0-1.8-.9-4.3-2.7 0 .4-.2.5-.5.5.7.7 1.4 1.4 1.9 1.9s1 1.2 1.4 1.9c.4.4 1.1 1.6 2.2 3.8v9.8c-.7 1.4-1.1 2.5-1.1 3.3v5.4c.4.7.5 1.8.5 3.2s.2 2.5.5 3.2c.4 1.4.4 2.5.3 3.3-.2.7-1 1.4-2.4 2.2-1.1 1.1-1.6 1.8-1.6 2.2s-.1 1.2-.3 2.4c-.2 1.3.4 2.3 1.9 3l2.2 1.6-2.2 1.6c-1.8 1.8-4.2 3.3-7.3 4.3-3.1 1.1-5.3 2-6.8 2.7l-22.8 9.2-16.3 8.1c-10.1 4.3-25.3 11.2-45.5 20.6-5.8 2.9-10.1 4.9-13 6-3.2 1.4-9 3.4-17.3 6-1.4.4-3.2.1-5.1-.8-2-.9-3.3-2.1-4.1-3.5l-2.2-2.7c-.7-2.5-.9-4.1-.5-4.9 1.1-1.8 1.6-3.3 1.6-4.3l-.5-2.7c-.4-1.4-.2-2.9.5-4.3 1.1-1.8 1.1-3.4 0-4.9l-1.6-3.3c-.7 0-1.3-.2-1.6-.5.4-.7.5-1.8.5-3.3 0-3.2.2-5.8.5-7.6l-1.6-.5c1.1-1.8 1.6-3.4 1.6-4.9 0-2.2-.5-4-1.6-5.4l35.2-15.7 35.8-15.7v-.5c-2.2-.7-3.8-1.4-4.9-2.2l-16.3-7c-2.9-1.1-6.1-2.6-9.5-4.6s-6.1-3.5-7.9-4.6c-1.4-.7-4.7-2-9.8-3.8l-1.6-1.1c-3.6-2.5-6.8-4.8-9.5-6.8s-5.1-3.7-7.3-5.1c-1.8-1.1-2.9-2.5-3.2-4.3-.4-1.8-.5-2.9-.5-3.2l.5-1.6c.4-.4.5-1.1.5-2.2v-1.1c-.4-.7-.6-1.9-.6-3.8zm8.2 117.1v-3.3c0-.4-.2-.5-.5-.5l-1.6 2.7 1.6 1.6zm0-21.1 4.9-3.2-.5-1.1c-1.1.7-2.7 1.4-4.9 2.2-.4.4-.5.9-.5 1.6zm4.8-14.1 14.1-6.5-.5-1.1-16.8 6.5v1.1c.4 0 .8.1 1.4.3.5.1 1.1 0 1.8-.3zm-1.6-67.8 10.8 6.5v-.5c-4.3-3.6-7.6-6.1-9.8-7.6-.4-.4-.6-.4-.8-.3-.2.2-.5.3-.8.3.1.7.2 1.3.6 1.6zm3.3 78.1c0 .4.2.5.5.5 8.3-3.6 15.7-6.7 22.2-9.2 23.8-10.1 41.7-18.2 53.6-24.4-1.4 0-2.4.2-2.7.5l-14.1 6.5-33.1 13.5-22.2 9.8c-1.7.4-3.2 1.3-4.2 2.8zm18.9-108.4-16.8-8.1v.5c.7.7 1.3 1.1 1.6 1.1l19 9.8c2.9 1.4 7 3.3 12.2 5.7s9.8 4.8 13.8 7.3c8.7 5.8 17.7 9.8 27.1 11.9l4.3 1.6c4.3 2.2 7.6 3.6 9.8 4.3.4.4 2.3 1.1 6 2.2.7.4 1.6.9 2.7 1.6s2.3 1.3 3.8 1.6c2.2 1.1 7.8 3.4 16.8 7-.7-1.1-1.6-2-2.7-2.7-4-2.2-6.3-3.4-7-3.8l-15.2-7.6c-1.8-.7-4.6-2.1-8.4-4.1s-7.3-3.3-10.6-4.1c-10.1-3.1-23.1-8.5-39-16.1zm-9.2 5.9h-2.7c0 1.4.5 2.3 1.6 2.7s1.8.5 2.2.5l11.4 4.3c1.4.4 3.2 1.3 5.4 2.7l17.9 7.6c2.2 1.1 6 3 11.7 5.7 5.6 2.7 10.9 4.8 16 6.2 11.6 3.2 20.6 7 27.1 11.4 1.4.7 2.3 1.1 2.7 1.1.7.4 1.4.5 1.9.3s1-.3 1.4-.3v-1l-8.1-3.2-15.7-7c-1.4-.7-4.9-2-10.3-3.8l-13.5-5.4c-3.6-1.4-9-4-16.3-7.6-2.9-1.4-6.5-3.2-10.8-5.1-4.3-2-9.4-4.6-15.2-7.9-3.1-.8-5.2-1.2-6.7-1.2zm39 109-40.6 16.2v.5c3.6-.7 10.5-3.2 20.6-7.6 4.3-1.4 8.2-2.9 11.6-4.3s6.4-2.7 8.9-3.8zm-32.5-2.2c-1.1-1.8-3.6-.2-7.6 4.9 15.9-6.1 32.3-13.2 49.3-21.1l34.1-14.6c-.4-.4-.9-.8-1.6-1.4-.7-.5-1.6-.4-2.7.3-1.1.4-2.6.9-4.6 1.6s-4.2 1.8-6.8 3.2c-24.6 11.6-43.2 19.7-55.8 24.4-.3 0-1.8.9-4.3 2.7zm-7.6 15.7h2.2c10.1-3.6 17.7-6.5 22.8-8.7 2.5-1.1 7.9-3.6 16.3-7.6l24.9-11.4 16.8-8.7 1.6-1.6-.5-.5-4.9 2.2-2.2 1.6-5.4 1.1c-1.4.7-2.9 1.6-4.3 2.7s-2.9 2-4.3 2.7c-2.9 1.8-7.6 4.2-14.1 7-4.7 2.5-7.8 4.2-9.2 4.9-2.5 1.1-6.3 2.4-11.4 3.8-.7 0-1.3.2-1.6.5-2.9 0-4.9.4-6 1.1-1.8.7-3.8 1.5-6 2.4s-4.7 1.9-7.6 3c-2.6.8-4.9 2.6-7.1 5.5zm2.2 11.4v1.1c1.4 0 2.5-.2 3.3-.5l12.5-4.3c19.5-7.9 34-14.4 43.4-19.5.4-.4.7-.6 1.1-.8s.7-.4 1.1-.8c0-1.4 1.3-2.5 3.8-3.2 3.3-1.4 6.3-2.8 9.2-4.1s5.6-2.4 8.1-3.5c-1.8 0-3.1.2-3.8.5l-22.2 9.8c-11.6 5.8-20.2 9.9-26 12.5-3.3 1.8-6.1 3.2-8.7 4.1-2.5.9-4.7 1.7-6.5 2.4-1.1.4-2.5 1-4.3 1.9s-3.2 1.5-4.3 1.9c-2.7-.2-4.9.7-6.7 2.5zm55.3-43.4-53.6 22.8.5 1.1c21.3-7.6 39.2-15.2 53.6-22.8zm2.7-42.2-.5-.5-17.3-8.1c-15.2-7.2-25.5-12.5-30.9-15.7l-3.2-1.1c2.2 1.8 10.7 6.3 25.7 13.5 14.9 7.2 23.6 11.2 26.2 11.9zm-.6 8.1-48.7-22.8-.5 1.1c1.1.7 2.6 1.9 4.6 3.5s3.7 2.8 5.1 3.5l32.5 15.7c2.2 1.2 4.5.8 7-1zm-48.7-37.9c0 1.1.2 1.6.5 1.6.7.7 1.9 1.8 3.5 3.3 1.6 1.4 3.2 2.5 4.6 3.2 6.5 4 14.3 8 23.3 11.9 4 2.2 13.2 6.1 27.6 11.9 1.8 1.1 3.4.7 4.9-1.1-.4-.4-.8-.5-1.4-.5-.5 0-1-.2-1.4-.5-6.5-2.5-16.3-6.7-29.3-12.5-.7 0-1.3-.2-1.6-.5-.4-.4-.7-.7-1.1-1.1l.5-.5h2.7l-9.8-4.9c-10.6-5.5-18.3-8.9-23-10.3zm38.4 9.7 7.6 3.3c.4 0 .5-.2.5-.5l-7.6-3.2c.1.2-.1.4-.5.4zm28.8 20.6.5-1.1c-1.4-.4-3.1-1-4.9-1.9s-3.2-1.5-4.3-1.9l-.5 1.1c4.3 1.5 7.3 2.7 9.2 3.8zm16.8 47.2-17.9 7v.5l18.4-6.5c0-.7-.2-1-.5-1zm21.1-56.9c-3.2-2.2-6.1-4.5-8.7-7 2.5 3.5 5.4 5.9 8.7 7z"/></svg>